<?xml version="1.0" encoding="UTF-8" standalone="no"?>
<!-- Created with Inkscape (http://www.inkscape.org/) -->

<svg
   xmlns:dc="http://purl.org/dc/elements/1.1/"
   xmlns:cc="http://creativecommons.org/ns#"
   xmlns:rdf="http://www.w3.org/1999/02/22-rdf-syntax-ns#"
   xmlns:svg="http://www.w3.org/2000/svg"
   xmlns="http://www.w3.org/2000/svg"
   xmlns:sodipodi="http://sodipodi.sourceforge.net/DTD/sodipodi-0.dtd"
   xmlns:inkscape="http://www.inkscape.org/namespaces/inkscape"
   id="svg8837"
   sodipodi:docname="SaveView.svg"
   viewBox="0 0 64.000002 64.000001"
   sodipodi:version="0.32"
   version="1.0"
   inkscape:output_extension="org.inkscape.output.svg.inkscape"
   inkscape:version="0.92.3 (2405546, 2018-03-11)"
   width="64"
   height="64">
  <defs
     id="defs23" />
  <sodipodi:namedview
     id="base"
     bordercolor="#666666"
     inkscape:pageshadow="2"
     inkscape:window-width="1869"
     pagecolor="#ffffff"
     inkscape:zoom="8.2271924"
     inkscape:window-x="51"
     showgrid="false"
     borderopacity="1.0"
     inkscape:current-layer="layer1"
     inkscape:cx="29.580899"
     inkscape:cy="25.822454"
     inkscape:window-y="27"
     inkscape:window-height="1025"
     inkscape:pageopacity="0.0"
     inkscape:window-maximized="1" />
  <g
     id="layer1"
     inkscape:label="Layer 1"
     inkscape:groupmode="layer"
     transform="translate(-5.7967,29.839201)">
    <g
       id="g846"
       transform="matrix(1.7522949,0,0,1.7538871,2.1540257,-33.238628)"
       style="stroke-width:0.5704211">
      <path
         d="m 8.1675,6.7028 h 24.794 c 1.009,0 1.821,0.8122 1.821,1.821 v 23.265 c 0,1.009 -0.812,1.821 -1.821,1.821 h -12.397 l -7.678,-0.369 -2.9459,-0.041 -0.5638,0.41 H 8.167 L 6.3462,31.7888 V 8.5238 c 0,-1.009 0.8121,-1.8212 1.8208,-1.8212 z"
         style="fill:#707171;fill-opacity:0.070588;stroke:#000000;stroke-width:0.62746322;stroke-opacity:0.16863002"
         sodipodi:nodetypes="ccccccccccccc"
         id="path24449"
         inkscape:connector-curvature="0" />
      <path
         d="m 8.4415,6.9989 h 24.322 c 0.988,0 1.785,0.7966 1.785,1.7861 v 22.818 c 0,0.99 -0.797,1.786 -1.786,1.786 h -12.161 l -7.531,-0.362 -2.89,-0.041 -0.5528,0.403 H 8.441 L 6.655,31.603 V 8.785 c 0,-0.9895 0.7966,-1.7861 1.786,-1.7861 z"
         style="fill:#707171;stroke:#000000;stroke-width:0.19251712"
         sodipodi:nodetypes="ccccccccccccc"
         id="rect8847"
         inkscape:connector-curvature="0" />
      <path
         d="m 9.6035,7.3337 v 13.89 c 0,0.559 0.4385,0.976 0.9785,0.976 h 19.816 c 0.54,0 0.978,-0.417 0.978,-0.976 V 7.3337 L 9.604,7.3334 Z"
         style="fill:#909192;stroke-width:0.5704211"
         sodipodi:nodetypes="ccccccc"
         id="path10733"
         inkscape:connector-curvature="0" />
      <path
         d="m 10.892,7.1914 v 12.863 c 0,0.486 0.389,0.848 0.868,0.848 h 17.573 c 0.478,0 0.867,-0.362 0.867,-0.848 V 7.1914 l -19.308,4e-4 z"
         style="fill:#ffffff;stroke:#000000;stroke-width:0.08866625"
         sodipodi:nodetypes="ccccccc"
         id="rect9486"
         inkscape:connector-curvature="0" />
      <rect
         x="10.986"
         y="7.3449001"
         width="19.099001"
         height="1.8145"
         style="fill:#ff0000;fill-opacity:0.74118;stroke-width:0.5704211"
         id="rect11355" />
      <path
         d="M 12.383,11.291 H 28.581"
         style="fill:none;stroke:#000000;stroke-width:0.07388664"
         id="path11977"
         inkscape:connector-curvature="0" />
      <path
         d="M 12.383,13.675 H 28.581"
         style="fill:none;stroke:#000000;stroke-width:0.07388664"
         id="path13220"
         inkscape:connector-curvature="0" />
      <path
         d="M 12.383,16.059 H 28.581"
         style="fill:none;stroke:#000000;stroke-width:0.07388664"
         id="path13221"
         inkscape:connector-curvature="0" />
      <path
         d="M 12.383,18.443 H 28.581"
         style="fill:none;stroke:#000000;stroke-width:0.07388664"
         id="path13843"
         inkscape:connector-curvature="0" />
      <rect
         x="7.3045001"
         y="8.6008997"
         width="1.3615"
         height="0.95157999"
         style="fill:#ffffff;stroke:#000000;stroke-width:0.07445136"
         id="rect13844" />
      <rect
         x="32.487"
         y="8.6008997"
         width="1.3615"
         height="0.95157999"
         style="fill:#ffffff;stroke:#000000;stroke-width:0.07445136"
         id="rect14466" />
      <path
         d="m 31.08,27.746 v 0.985 h -0.706 l 1.165,2.644 1.165,-2.644 H 32.01 v -0.985 z"
         style="fill:#909192;stroke:#000000;stroke-width:0.02555943"
         id="path14474"
         inkscape:connector-curvature="0" />
      <path
         d="m 12.311,25.092 c -0.494,0 -0.875,0.38 -0.875,0.875 v 7.313 h 17.681 v -7.313 c 0,-0.495 -0.411,-0.875 -0.906,-0.875 z"
         style="fill:#909192;stroke:#000000;stroke-width:0.07130264"
         sodipodi:nodetypes="ccccccc"
         id="path20720"
         inkscape:connector-curvature="0" />
      <path
         d="m 12.57,25.342 c -0.495,0 -0.875,0.38 -0.875,0.875 l -0.046,7.313 h 13.467 l 0.046,-7.313 c 0,-0.495 -0.412,-0.875 -0.907,-0.875 z m 1.423,1.313 h 1.781 c 0.361,0 0.657,0.295 0.657,0.656 v 5.017 h -3.094 v -5.017 c 0,-0.361 0.295,-0.656 0.656,-0.656 z"
         style="fill:#a2a4a1;stroke:#000000;stroke-width:0.04278159"
         sodipodi:nodetypes="cccccccccccccc"
         id="rect19451"
         inkscape:connector-curvature="0" />
      <path
         d="M 10.482,22.148 H 30.296"
         style="fill:none;stroke:#9c9e9e;stroke-width:0.07130264"
         id="path22584"
         inkscape:connector-curvature="0" />
      <path
         d="M 12.275,25.179 H 27.778"
         style="fill:none;stroke:#acabac;stroke-width:0.05704211"
         id="path23206"
         inkscape:connector-curvature="0" />
    </g>
  </g>
  <metadata
     id="metadata20">
    <rdf:RDF>
      <cc:Work>
        <dc:format>image/svg+xml</dc:format>
        <dc:type
           rdf:resource="http://purl.org/dc/dcmitype/StillImage" />
        <cc:license
           rdf:resource="http://creativecommons.org/publicdomain/zero/1.0/" />
        <dc:publisher>
          <cc:Agent
             rdf:about="http://openclipart.org/">
            <dc:title>Openclipart</dc:title>
          </cc:Agent>
        </dc:publisher>
        <dc:title></dc:title>
        <dc:date>2009-06-03T04:45:21</dc:date>
        <dc:description>from the old OCAL site</dc:description>
        <dc:source>https://openclipart.org/detail/26423/disquete-by-anonymous</dc:source>
        <dc:creator>
          <cc:Agent>
            <dc:title>Anonymous</dc:title>
          </cc:Agent>
        </dc:creator>
        <dc:subject>
          <rdf:Bag>
            <rdf:li>computer</rdf:li>
            <rdf:li>disc</rdf:li>
            <rdf:li>floppy</rdf:li>
            <rdf:li>icon</rdf:li>
            <rdf:li>symbol</rdf:li>
          </rdf:Bag>
        </dc:subject>
      </cc:Work>
      <cc:License
         rdf:about="http://creativecommons.org/publicdomain/zero/1.0/">
        <cc:permits
           rdf:resource="http://creativecommons.org/ns#Reproduction" />
        <cc:permits
           rdf:resource="http://creativecommons.org/ns#Distribution" />
        <cc:permits
           rdf:resource="http://creativecommons.org/ns#DerivativeWorks" />
      </cc:License>
    </rdf:RDF>
  </metadata>
</svg>
